<svg xmlns="http://www.w3.org/2000/svg" width="512" height="512" fill="#005eaf" xmlns:v="https://vecta.io/nano"><path d="M470.5 237.638h-21.882l8.608 12.345h11.092l-9.328 53.105h19.432l9.34-53.105H512L473.737 219.2zM90.697 207.491H2.411L0 221.397h34.278l-14.361 81.695h19.432l14.364-81.695h34.573zm14.371 28.674c-24.7 0-40.513 15.547-43.651 33.609-3.48 20.055 8.843 34.735 33.772 34.735 11.138 0 21.558-2.095 30.025-6.8l2.629-14.958c-8.27 5.925-18.796 9.236-27.713 9.236-12.427 0-22.307-5.174-20.753-17.042h51.351c.618-1.41 1.36-3.877 1.894-6.955 2.489-14.331-2.59-31.825-27.554-31.825m10.073 27.241H81.345c2.032-6.694 8.597-15.95 20.55-15.95 13.007 0 14.381 9.888 13.246 15.95m75.749-27.237c-12.129 0-21.214 5.027-25.498 10.109h-.453l-17.105-10.109c-.629 5.672-1.469 13.375-2.784 20.935l-7.989 45.984h19.432l6.758-38.51c.324-1.89.967-3.894 1.803-5.254 2.903-5.052 8.994-9.705 16.715-9.705 10.604 0 13.489 7.154 11.862 16.542l-6.498 36.927h19.436l6.843-38.875c3.592-20.695-9.134-28.044-22.522-28.044m233.112 0c-12.135 0-21.21 5.027-25.495 10.109h-.453l-17.106-10.109c-.629 5.672-1.473 13.375-2.787 20.935l-7.981 45.984h19.425l6.762-38.51c.32-1.89.964-3.894 1.796-5.254 2.906-5.052 8.996-9.705 16.712-9.705 10.616 0 13.499 7.154 11.872 16.542l-6.495 36.927h19.432l6.833-38.875c3.594-20.695-9.129-28.044-22.515-28.044"/><path d="M338.18 236.165c-24.7 0-40.508 15.547-43.647 33.609-3.48 20.055 8.843 34.735 33.768 34.735 11.138 0 21.562-2.095 30.025-6.8l2.633-14.958c-8.269 5.925-18.792 9.236-27.72 9.236-12.421 0-22.289-5.174-20.747-17.042h51.358c.608-1.41 1.353-3.877 1.897-6.955 2.475-14.331-2.607-31.825-27.567-31.825m10.072 27.241H314.46c2.028-6.694 8.593-15.95 20.542-15.95 13.015 0 14.389 9.888 13.25 15.95m-126.686 6.079c-3.525 20.315 10.699 35.016 34.773 35.016 9.574 0 21.003-2.753 25.333-4.358l3.142-17.492c-6.751 7.262-15.904 8.77-22.398 8.77-13.225 0-23.238-7.7-20.908-21.119 2.021-11.999 13.384-21.22 28.197-21.22 6.031 0 14.217 2.02 19.376 8.81l3.012-17.793c-4.179-1.604-10.867-3.894-20.768-3.894-27.013-.001-46.353 13.687-49.759 33.28"/></svg>