<svg xmlns="http://www.w3.org/2000/svg" xmlns:xlink="http://www.w3.org/1999/xlink" width="512" height="512" viewBox="0 0 512.001 512.001" xmlns:v="https://vecta.io/nano"><path d="M398.834 495.211c42.833 0 77.556-14.726 77.556-57.558l-.006-414.443h-47.012l.003 362.534c0 37.309-30.245 67.554-67.553 67.554h-27.218l.001 47.913 64.229-6z" fill="#ededed"/><path d="M504.385 16c0-8.836-7.164-16-15.999-16h-364.43a16 16 0 0 0-11.312 4.688 16 16 0 0 0-4.688 11.313l.004 349.334H23.611a16 16 0 0 0-16 15.999v37.105C7.611 470.032 49.58 512 101.167 512h309.666c51.589 0 93.556-41.969 93.556-93.561L504.385 16zm-93.552 464c-33.944 0-61.557-27.617-61.557-61.562v-37.105a16 16 0 0 0-15.999-16l-193.317.001-.004-333.335h332.43l.005 386.439c0 33.946-27.613 61.562-61.558 61.562z" fill="#a1b1b7"/><path d="M87.609 418.439v-37.105a16 16 0 0 1 16-15.999H23.611c-8.836.001-16 7.161-16 16v37.105c0 51.593 41.969 93.561 93.556 93.561h79.999c-51.588-.001-93.557-41.97-93.557-93.562z" fill="#8fa3ad"/><path d="M251.114 81.311H185.09c-6.637 0-12.015 5.378-12.015 12.015v90.569a12.02 12.02 0 0 0 12.015 12.015h66.023a12.02 12.02 0 0 0 12.015-12.015V93.326c.001-6.637-5.377-12.015-12.014-12.015z" fill="#feaa00"/><g fill="#e55100"><use xlink:href="#B"/><use xlink:href="#B" y="45.656"/><use xlink:href="#B" y="91.313"/></g><path d="M381.439 299.788c-8.847 0-16.02-7.172-16.02-16.02v-15.623c0-8.848 7.173-16.02 16.02-16.02s16.02 7.172 16.02 16.02v15.623c0 8.849-7.173 16.02-16.02 16.02zm-.008 39.419c-4.165 0-8.331-1.763-11.291-4.726-3.047-2.964-4.728-7.049-4.728-11.294s1.682-8.411 4.728-11.374c5.925-5.927 16.657-5.927 22.586 0 3.043 3.044 4.725 7.129 4.725 11.374 0 4.164-1.682 8.33-4.646 11.294-3.043 2.963-7.127 4.726-11.374 4.726zm63.399-187.743l-52.064-52.06c-6.008-6.011-16.646-6.008-22.653 0l-52.064 52.069c-6.257 6.257-6.257 16.403 0 22.657 3.129 3.129 7.228 4.689 11.326 4.689s8.202-1.565 11.326-4.689l24.718-24.722v74.744c0 8.847 7.173 16.02 16.02 16.02s16.02-7.173 16.02-16.02v-74.745l24.718 24.714c6.257 6.257 16.403 6.254 22.653 0 6.258-6.254 6.258-16.4 0-22.657z" fill="#be360c"/><defs ><path id="B" d="M289.56 247.173H178.755c-6.637 0-12.015-5.379-12.015-12.015s5.378-12.015 12.015-12.015H289.56c6.637 0 12.015 5.379 12.015 12.015s-5.378 12.015-12.015 12.015z"/></defs></svg>